<svg class="batterie" xmlns="http://www.w3.org/2000/svg" viewBox="0 0 72 36"><defs><style>.cls-1{fill:#fff;}</style></defs><g id="Calque_2" data-name="Calque 2"><g id="Calque_5" data-name="Calque 5"><g id="Almost_Full_Battery"><path class="cls-1" d="M67.5,6.75H63A6.76,6.76,0,0,0,56.25,0H6.75A6.76,6.76,0,0,0,0,6.75v22.5A6.76,6.76,0,0,0,6.75,36h49.5A6.76,6.76,0,0,0,63,29.25h4.5a4.51,4.51,0,0,0,4.5-4.5V11.25A4.51,4.51,0,0,0,67.5,6.75Zm-9,22.5a2.25,2.25,0,0,1-2.25,2.25H6.75A2.25,2.25,0,0,1,4.5,29.25V6.75A2.25,2.25,0,0,1,6.75,4.5h49.5A2.25,2.25,0,0,1,58.5,6.75Zm9-4.5H63V11.25h4.5ZM42.51,11a4,4,0,0,0-3.25-2h-28A2.25,2.25,0,0,0,9,11.25v13.5A2.25,2.25,0,0,0,11.25,27h37a1.28,1.28,0,0,0,1.24-2Z"/></g></g></g></svg>