<svg class="wifi" xmlns="http://www.w3.org/2000/svg" viewBox="0 0 43.7 33.94"><defs><style>.cls-1{opacity:0.5;}.cls-2{fill:#fff;}</style></defs><g id="Calque_2" data-name="Calque 2"><g id="Calque_3" data-name="Calque 3"><g class="cls-1"><path class="cls-2" d="M40.39,14.3a3.3,3.3,0,0,1-2.34-1,22.94,22.94,0,0,0-32.4,0A3.31,3.31,0,0,1,1,8.64a29.56,29.56,0,0,1,41.77,0,3.32,3.32,0,0,1-2.35,5.66Z"/></g><path class="cls-2" d="M31.43,23.25a3.25,3.25,0,0,1-2.34-1,10.26,10.26,0,0,0-14.48,0,3.31,3.31,0,0,1-4.68-4.68,16.86,16.86,0,0,1,23.84,0,3.31,3.31,0,0,1-2.34,5.65Z"/><circle class="cls-2" cx="21.85" cy="29.52" r="4.42"/></g></g></svg>