<svg xmlns="http://www.w3.org/2000/svg" xmlns:xlink="http://www.w3.org/1999/xlink" viewBox="0 0 313.88 385.02"><defs><style>.cls-1{fill:url(#Dégradé_sans_nom_47);}</style><linearGradient id="Dégradé_sans_nom_47" x1="-348.04" y1="480.63" x2="500.64" y2="56.29" gradientUnits="userSpaceOnUse"><stop offset="0.32" stop-color="#e6e6e6"/><stop offset="0.51" stop-color="#e8e8e8"/><stop offset="0.59" stop-color="#efefef"/><stop offset="0.65" stop-color="#fbfbfb"/><stop offset="0.65" stop-color="#fcfcfc"/></linearGradient></defs><g id="Calque_2" data-name="Calque 2"><g id="Calque_1-2" data-name="Calque 1"><path class="cls-1" d="M173.19,33.51C198.48.16,233.65,0,233.65,0s5.23,31.35-19.9,61.55c-26.83,32.24-57.33,27-57.33,27S150.69,63.16,173.19,33.51Zm-13.56,77c13,0,37.17-17.89,68.61-17.89,54.12,0,75.41,38.51,75.41,38.51S262,152.38,262,204c0,58.27,51.87,78.36,51.87,78.36s-36.26,102.06-85.23,102.06c-22.5,0-40-15.16-63.69-15.16-24.15,0-48.12,15.72-63.73,15.72C56.5,385,0,288.21,0,210.39,0,133.82,47.82,93.66,92.68,93.66c29.16,0,51.79,16.81,66.95,16.81Z"/></g></g></svg>